<svg xmlns="http://www.w3.org/2000/svg" version="1.1" xmlns:xlink="http://www.w3.org/1999/xlink" xmlns:svgjs="http://svgjs.dev/svgjs" width="1000" height="1000" viewBox="0 0 1000 1000"><rect width="1000" height="1000" fill="#ffffff"></rect><g transform="matrix(0.3287928604978863,0,0,0.3287928604978863,336.03413874093303,149.88264312970693)"><svg viewBox="0 0 154 328" data-background-color="#ffffff" preserveAspectRatio="xMidYMid meet" height="2129" width="1000" xmlns="http://www.w3.org/2000/svg" xmlns:xlink="http://www.w3.org/1999/xlink"><g id="tight-bounds" transform="matrix(1,0,0,1,-0.20166990347820501,0.05499007636586839)"><svg viewBox="0 0 154.40333980695644 247.2" height="247.2" width="154.40333980695644"><g><svg viewBox="0 0 173.99705633055171 278.5695722559398" height="247.2" width="154.40333980695644"><g><svg viewBox="0 0 173.99705633055171 278.5695722559398" height="278.5695722559398" width="173.99705633055171"><g id="textblocktransform"><svg viewBox="0 0 173.99705633055171 278.5695722559398" height="278.5695722559398" width="173.99705633055171" id="textblock"><g><rect width="173.99705633055171" height="246.672304" fill="none" stroke-width="8.962371322224001" stroke="#222222" data-fill-palette-color="none" data-stroke-palette-color="tertiary"></rect><rect width="173.99705633055171" height="122.826816452448" y="246.672304" fill="#222222" data-fill-palette-color="tertiary"></rect></g><g><svg viewBox="0 0 173.99705633055171 245.672304" height="245.672304" width="173.99705633055171"><g transform="matrix(1,0,0,1,23.461705032,23.461705032)"><svg width="127.0736462665517" viewBox="0.5 -34.29999923706055 22.25 34.79999923706055" height="198.748893936" data-palette-color="#222222"><path d="M0.5-11.4L7.75-11.4 7.75-9.35Q7.75-7.85 8.85-6.75 9.95-5.65 11.4-5.65L11.4-5.65Q13.05-5.65 14.13-6.68 15.2-7.7 15.2-9.35L15.2-9.35 15.2-34.3 22.75-34.3 22.75-9.15Q22.75-4.55 19.75-2.02 16.75 0.5 11.95 0.5L11.95 0.5 10.95 0.5Q6.15 0.5 3.33-2 0.5-4.5 0.5-9.15L0.5-9.15 0.5-11.4Z" opacity="1" transform="matrix(1,0,0,1,0,0)" fill="#222222" class="wordmark-text-0" data-fill-palette-color="primary" id="text-0"></path></svg></g></svg></g><g transform="matrix(1,0,0,1,33.23343775913538,245.672304)"><svg viewBox="0 0 107.53018081228096 32.897268255939835" height="32.897268255939835" width="107.53018081228096"><g transform="matrix(1,0,0,1,20,3.2)"><svg width="67.53018081228096" viewBox="2.5 -35 89.19999694824219 35" height="26.497268255939836" data-palette-color="#ffffff"><path d="M5.55-32.25L2.5-32.25 2.5-35 14.55-35Q21.3-35 25.38-31.08 29.45-27.15 29.45-18.3L29.45-18.3Q29.45-9.55 26.6-5.2L26.6-5.2Q24.1-1.4 18.8-0.4L18.8-0.4Q16.45 0 13.3 0L13.3 0 2.5 0 2.5-2.75 5.55-2.75 5.55-32.25ZM14.3-32.25L14.3-32.25 8.95-32.25 8.95-2.75 13.05-2.75Q19.7-2.75 22.2-5.2L22.2-5.2Q24.85-7.75 25.6-12.1L25.6-12.1Q26.05-14.65 26.05-18.05L26.05-18.05Q26.05-25.55 22.78-28.9 19.5-32.25 14.3-32.25ZM36-32.25L32.95-32.25 32.95-35 54.2-35 54.15-34.7 54.8-27.8 52.3-27.4 51.7-32.25 39.4-32.25 39.4-18.85 50.3-18.85 50.3-22 53.05-22 53.05-13.4 50.3-13.4 50.3-16.1 39.4-16.1 39.4-2.75 53.05-2.75 53.8-9 56.25-8.75 55.5 0 32.95 0 32.95-2.75 36-2.75 36-32.25ZM84.9-32.25L81.9-32.25 81.9-35 91.7-35 91.7-32.25 88.09-32.25 76.7 0 73.4 0 61.55-32.25 58.25-32.25 58.25-35 68.34-35 68.34-32.25 64.9-32.25 75.3-3.8 84.9-32.25Z" opacity="1" transform="matrix(1,0,0,1,0,0)" fill="#ffffff" class="slogan-text-1" data-fill-palette-color="quaternary" id="text-1"></path></svg></g></svg></g></svg></g></svg></g></svg></g><defs></defs></svg><rect width="154.40333980695644" height="247.2" fill="none" stroke="none" visibility="hidden"></rect></g></svg></g></svg>